<svg width="92" height="68" viewBox="0 0 92 68" fill="none" xmlns="http://www.w3.org/2000/svg">
<mask id="path-1-inside-1" fill="white">
<path fill-rule="evenodd" clip-rule="evenodd" d="M92 3C92 1.34315 90.6569 0 89 0H3C1.34315 0 0 1.34315 0 3V60.26C0 61.9168 1.34315 63.26 3 63.26H39.6692C40.6652 63.26 41.5963 63.7543 42.1542 64.5793L43.5149 66.5912C44.7046 68.3504 47.2953 68.3504 48.485 66.5911L49.8455 64.5794C50.4035 63.7543 51.3346 63.26 52.3306 63.26H89C90.6569 63.26 92 61.9168 92 60.26V3Z"/>
</mask>
<path fill-rule="evenodd" clip-rule="evenodd" d="M92 3C92 1.34315 90.6569 0 89 0H3C1.34315 0 0 1.34315 0 3V60.26C0 61.9168 1.34315 63.26 3 63.26H39.6692C40.6652 63.26 41.5963 63.7543 42.1542 64.5793L43.5149 66.5912C44.7046 68.3504 47.2953 68.3504 48.485 66.5911L49.8455 64.5794C50.4035 63.7543 51.3346 63.26 52.3306 63.26H89C90.6569 63.26 92 61.9168 92 60.26V3Z" fill="white"/>
<path d="M49.8455 64.5794L49.0172 64.0192L49.8455 64.5794ZM43.5149 66.5912L44.3432 66.031L43.5149 66.5912ZM42.1542 64.5793L41.3259 65.1395L42.1542 64.5793ZM3 1H89V-1H3V1ZM1 60.26V3H-1V60.26H1ZM39.6692 62.26H3V64.26H39.6692V62.26ZM44.3432 66.031L42.9826 64.0191L41.3259 65.1395L42.6865 67.1514L44.3432 66.031ZM49.0172 64.0192L47.6567 66.031L49.3134 67.1513L50.6739 65.1396L49.0172 64.0192ZM89 62.26H52.3306V64.26H89V62.26ZM91 3V60.26H93V3H91ZM89 64.26C91.2091 64.26 93 62.4691 93 60.26H91C91 61.3645 90.1046 62.26 89 62.26V64.26ZM50.6739 65.1396C51.0459 64.5895 51.6666 64.26 52.3306 64.26V62.26C51.0026 62.26 49.7611 62.9191 49.0172 64.0192L50.6739 65.1396ZM42.6865 67.1514C44.2729 69.497 47.7271 69.4969 49.3134 67.1513L47.6567 66.031C46.8635 67.2038 45.1364 67.2038 44.3432 66.031L42.6865 67.1514ZM39.6692 64.26C40.3332 64.26 40.9539 64.5895 41.3259 65.1395L42.9826 64.0191C42.2386 62.9191 40.9972 62.26 39.6692 62.26V64.26ZM-1 60.26C-1 62.4691 0.790861 64.26 3 64.26V62.26C1.89543 62.26 1 61.3645 1 60.26H-1ZM89 1C90.1046 1 91 1.89543 91 3H93C93 0.790861 91.2091 -1 89 -1V1ZM3 -1C0.790861 -1 -1 0.790861 -1 3H1C1 1.89543 1.89543 1 3 1V-1Z" fill="#D8E0F7" mask="url(#path-1-inside-1)"/>
<path d="M29 33.25C29 23.7231 36.6683 16 46.1277 16C47.8711 16 49.5537 16.2624 51.1387 16.75" stroke="#5F82FF" stroke-width="4" stroke-linecap="round" stroke-linejoin="round"/>
<path fill-rule="evenodd" clip-rule="evenodd" d="M42.4415 36.9623C44.4774 39.0126 47.778 39.0126 49.8136 36.9623C51.8492 34.912 60.2765 20.5 59.5319 19.75C58.787 19 44.4774 27.4874 42.4415 29.5377C40.4059 31.5879 40.4059 34.912 42.4415 36.9623ZM46.1273 34.75C46.9501 34.75 47.6168 34.0785 47.6168 33.25C47.6168 32.4216 46.9501 31.75 46.1273 31.75C45.3048 31.75 44.6381 32.4216 44.6381 33.25C44.6381 34.0785 45.3048 34.75 46.1273 34.75Z" fill="#5F82FF"/>
<ellipse cx="31.234" cy="42.25" rx="1.48936" ry="1.5" fill="#5F82FF"/>
<ellipse cx="37.1915" cy="48.25" rx="1.48936" ry="1.5" fill="#5F82FF"/>
<ellipse cx="46.1275" cy="50.5" rx="1.48936" ry="1.5" fill="#5F82FF"/>
<ellipse cx="55.0638" cy="48.25" rx="1.48936" ry="1.5" fill="#5F82FF"/>
<ellipse cx="60.2767" cy="42.25" rx="1.48936" ry="1.5" fill="#5F82FF"/>
<ellipse cx="62.5106" cy="33.25" rx="1.48936" ry="1.5" fill="#5F82FF"/>
</svg>
